<?xml version="1.0" encoding="utf-8"?>
<!-- Generator: Adobe Illustrator 16.0.4, SVG Export Plug-In . SVG Version: 6.00 Build 0)  -->
<!DOCTYPE svg PUBLIC "-//W3C//DTD SVG 1.1//EN" "http://www.w3.org/Graphics/SVG/1.1/DTD/svg11.dtd">
<svg version="1.1" id="Layer_1" xmlns="http://www.w3.org/2000/svg" xmlns:xlink="http://www.w3.org/1999/xlink" x="0px" y="0px"
	 width="111.625px" height="78.682px" viewBox="0 0 111.625 78.682" enable-background="new 0 0 111.625 78.682"
	 xml:space="preserve">
<path d="M103.483,15.615L81.856,25.997L65.492,72.595c-0.275,0.778-1.106,1.708-1.849,2.062l-8.11,3.893
	c-0.742,0.354-1.283-0.023-1.194-0.845l4.232-40.526l-5.437,2.609c-9.688,4.647-31.519,10.28-35.378,7.146
	C9.818,40.489,0,28.709,0,28.709s1.807-0.867,4.732-2.272l20.733,6.678L91.11,1.596c5.834-2.801,18.037-1.899,20.188,2.581
	C112.72,7.13,109.388,12.781,103.483,15.615z M24.402,8.428l17.822,11.461l17.514-8.409l-24.37-8.554
	c-0.779-0.275-2.025-0.205-2.768,0.148l-8.11,3.893C23.749,7.326,23.708,7.985,24.402,8.428z"/>
</svg>
